# xmcd
#
# Track frame offsets:
#	150
#	20050
#	38945
#	55174
#	67575
#	78995
#	91676
#	110468
#	125205
#	135805
#	155319
#	169659
#	181221
#	198297
#	215029
#	230058
#	246372
#	260733
#
# Disc length: 3707 seconds
#
# Revision: 1
# Processed by: cddbd v1.5.2PL0 Copyright (c) Steve Scherf et al.
# Submitted via: audiograbber 1.83.01
#
DISCID=f40e7912
DTITLE=Various Artist - STC VOL 12
DYEAR=1900
DGENRE=COUNTRY
TTITLE0=Lonestar - Amazed [CD Version)
TTITLE1=Ronnie Milsap - Lost In The Fifties Tonight
TTITLE2=Dan Seals - Bop
TTITLE3=Aaron Tippin - Tere Ain't Nothin' Wrong With The Radio
TTITLE4=Willie Nelson - On The Road Again
TTITLE5=Kentucky Headhunters - Dumas Walker
TTITLE6=Faith Hill - Tim McGraw - Let's M ake Love
TTITLE7=George Jones - He Stopped Loving Her Today
TTITLE8=Ronnie Milsap - Daydreams About Night Things
TTITLE9=Mavericks - Dance The Night Away
TTITLE10=Deana Carter - Did I Shave My Legs For This
TTITLE11=Martina McBride - My Baby Loves Me
TTITLE12=Chely Wright - Shut Up And Drive
TTITLE13=Dwight Yoakam - Things Change
TTITLE14=Paul Brandt - A Little In Love
TTITLE15=Mindy McCready - You'll Never Know
TTITLE16=Trisha Yearwood - Everbody Knows
TTITLE17=Dan Seals - Love On Arrival
EXTD=
EXTT0=
EXTT1=
EXTT2=
EXTT3=
EXTT4=
EXTT5=
EXTT6=
EXTT7=
EXTT8=
EXTT9=
EXTT10=
EXTT11=
EXTT12=
EXTT13=
EXTT14=
EXTT15=
EXTT16=
EXTT17=
PLAYORDER=
